<?xml version="1.0" encoding="UTF-8" standalone="no"?><!DOCTYPE svg PUBLIC "-//W3C//DTD SVG 1.1//EN" "http://www.w3.org/Graphics/SVG/1.1/DTD/svg11.dtd"><svg width="100%" height="100%" viewBox="0 0 166 44" version="1.1" xmlns="http://www.w3.org/2000/svg" xmlns:xlink="http://www.w3.org/1999/xlink" xml:space="preserve" xmlns:serif="http://www.serif.com/" style="fill-rule:evenodd;clip-rule:evenodd;stroke-linejoin:round;stroke-miterlimit:2;"><g id="Layer-1" serif:id="Layer 1"><g id="g25429"><path id="path24555" d="M161.661,9.79c-0.098,-1.339 -0.456,-2.346 -1.081,-3.008c-0.625,-0.668 -1.447,-0.999 -2.466,-0.999c-0.972,-0 -1.77,0.336 -2.396,1.012c-0.621,0.674 -1.001,1.673 -1.135,2.995l7.078,0Zm-7.078,2.222c0.012,0.886 0.189,1.664 0.538,2.337c0.349,0.679 0.807,1.189 1.386,1.53c0.575,0.339 1.212,0.514 1.907,0.514c0.468,0 0.894,-0.056 1.282,-0.169c0.382,-0.107 0.758,-0.276 1.121,-0.51c0.359,-0.233 0.695,-0.483 1,-0.75c0.3,-0.267 0.699,-0.627 1.187,-1.085c0.199,-0.171 0.485,-0.257 0.856,-0.257c0.399,0 0.725,0.112 0.972,0.326c0.246,0.221 0.372,0.531 0.372,0.931c-0,0.353 -0.14,0.767 -0.414,1.236c-0.276,0.473 -0.694,0.925 -1.251,1.357c-0.558,0.436 -1.257,0.793 -2.1,1.079c-0.846,0.288 -1.814,0.432 -2.909,0.432c-2.506,-0 -4.453,-0.718 -5.84,-2.147c-1.39,-1.432 -2.085,-3.375 -2.085,-5.826c0,-1.153 0.173,-2.226 0.515,-3.212c0.341,-0.989 0.841,-1.836 1.496,-2.543c0.656,-0.704 1.465,-1.247 2.427,-1.623c0.961,-0.376 2.03,-0.565 3.201,-0.565c1.522,0 2.831,0.322 3.921,0.967c1.093,0.645 1.906,1.48 2.454,2.504c0.54,1.022 0.812,2.062 0.812,3.124c0,0.984 -0.28,1.622 -0.842,1.912c-0.563,0.292 -1.352,0.438 -2.373,0.438l-7.633,-0Zm-7.086,3.692c-0.289,0.552 -0.734,1.079 -1.329,1.58c-0.596,0.502 -1.346,0.904 -2.251,1.209c-0.903,0.306 -1.925,0.457 -3.058,0.457c-2.41,-0 -4.294,-0.702 -5.644,-2.11c-1.353,-1.407 -2.031,-3.293 -2.031,-5.661c0,-1.6 0.308,-3.018 0.929,-4.248c0.62,-1.232 1.514,-2.183 2.685,-2.858c1.173,-0.671 2.574,-1.005 4.203,-1.005c1.011,-0 1.936,0.145 2.778,0.44c0.844,0.295 1.559,0.679 2.145,1.144c0.586,0.468 1.035,0.963 1.343,1.494c0.31,0.53 0.466,1.022 0.466,1.479c0,0.469 -0.174,0.862 -0.522,1.186c-0.348,0.325 -0.772,0.487 -1.267,0.487c-0.321,-0 -0.591,-0.085 -0.806,-0.25c-0.214,-0.168 -0.454,-0.44 -0.721,-0.811c-0.478,-0.728 -0.976,-1.273 -1.495,-1.634c-0.518,-0.363 -1.18,-0.543 -1.979,-0.543c-1.153,0 -2.082,0.452 -2.787,1.354c-0.706,0.905 -1.058,2.138 -1.058,3.704c-0,0.735 0.091,1.417 0.272,2.029c0.183,0.616 0.443,1.144 0.786,1.579c0.345,0.434 0.758,0.764 1.245,0.988c0.486,0.224 1.019,0.336 1.599,0.336c0.783,0 1.451,-0.181 2.007,-0.542c0.558,-0.365 1.052,-0.917 1.479,-1.666c0.239,-0.438 0.497,-0.782 0.773,-1.03c0.277,-0.247 0.615,-0.375 1.014,-0.375c0.476,0 0.872,0.184 1.185,0.545c0.317,0.366 0.476,0.751 0.476,1.162c-0,0.485 -0.147,1.006 -0.437,1.56Zm-21.34,-4.587c-0.574,0.212 -1.405,0.432 -2.496,0.667c-1.093,0.232 -1.85,0.408 -2.268,0.516c-0.422,0.11 -0.823,0.326 -1.205,0.645c-0.381,0.318 -0.569,0.767 -0.569,1.339c-0,0.592 0.223,1.097 0.671,1.513c0.446,0.415 1.034,0.625 1.761,0.625c0.77,0 1.484,-0.171 2.137,-0.512c0.655,-0.337 1.133,-0.776 1.439,-1.311c0.351,-0.593 0.528,-1.569 0.528,-2.926l0,-0.556l0.002,-0Zm-2.482,7.312c-0.883,0.367 -1.873,0.551 -2.969,0.551c-1.001,0 -1.88,-0.196 -2.641,-0.592c-0.756,-0.396 -1.34,-0.931 -1.75,-1.612c-0.409,-0.677 -0.614,-1.413 -0.614,-2.205c0,-1.07 0.337,-1.981 1.014,-2.738c0.678,-0.754 1.607,-1.26 2.791,-1.514c0.246,-0.059 0.864,-0.186 1.844,-0.388c0.981,-0.201 1.824,-0.385 2.527,-0.548c0.697,-0.168 1.461,-0.372 2.28,-0.611c-0.05,-1.028 -0.254,-1.786 -0.622,-2.269c-0.369,-0.48 -1.129,-0.72 -2.282,-0.72c-0.99,-0 -1.739,0.138 -2.237,0.414c-0.501,0.279 -0.93,0.691 -1.287,1.245c-0.36,0.552 -0.611,0.92 -0.759,1.095c-0.149,0.174 -0.464,0.263 -0.952,0.263c-0.438,-0 -0.818,-0.137 -1.138,-0.422c-0.318,-0.281 -0.477,-0.642 -0.477,-1.079c0,-0.685 0.243,-1.351 0.727,-2.001c0.487,-0.647 1.243,-1.183 2.272,-1.602c1.031,-0.415 2.312,-0.628 3.846,-0.628c1.713,-0 3.062,0.206 4.043,0.609c0.983,0.406 1.676,1.045 2.08,1.921c0.405,0.88 0.609,2.044 0.609,3.494c-0,0.913 -0.002,1.694 -0.009,2.332c-0.006,0.639 -0.011,1.35 -0.022,2.129c0,0.737 0.124,1.503 0.367,2.299c0.243,0.8 0.363,1.311 0.363,1.541c-0,0.4 -0.187,0.767 -0.565,1.096c-0.374,0.327 -0.802,0.492 -1.275,0.492c-0.4,0 -0.794,-0.189 -1.185,-0.565c-0.389,-0.376 -0.801,-0.923 -1.24,-1.639c-0.945,0.737 -1.859,1.285 -2.739,1.652Zm-14.646,-10.109c-0.316,-0.739 -0.752,-1.306 -1.31,-1.7c-0.558,-0.394 -1.174,-0.592 -1.85,-0.592c-1.078,-0 -1.986,0.423 -2.723,1.27c-0.742,0.848 -1.109,2.098 -1.109,3.745c-0,1.554 0.365,2.761 1.101,3.624c0.734,0.862 1.644,1.291 2.731,1.291c0.648,0 1.25,-0.187 1.802,-0.563c0.553,-0.376 0.994,-0.942 1.329,-1.693c0.333,-0.753 0.499,-1.664 0.499,-2.729c0,-1.029 -0.157,-1.916 -0.47,-2.653Zm-7.179,-2.552c0.736,-0.91 1.498,-1.576 2.288,-2.001c0.793,-0.426 1.688,-0.64 2.688,-0.64c1.204,-0 2.307,0.311 3.316,0.931c1.009,0.621 1.809,1.528 2.397,2.72c0.582,1.19 0.879,2.604 0.879,4.234c0,1.201 -0.17,2.306 -0.507,3.311c-0.34,1.008 -0.804,1.853 -1.395,2.534c-0.592,0.682 -1.29,1.206 -2.095,1.573c-0.805,0.369 -1.669,0.554 -2.596,0.554c-1.114,-0 -2.051,-0.227 -2.808,-0.678c-0.758,-0.446 -1.481,-1.106 -2.167,-1.976l-0,5.852c-0,1.712 -0.625,2.569 -1.879,2.569c-0.735,-0 -1.224,-0.223 -1.462,-0.668c-0.242,-0.441 -0.36,-1.088 -0.36,-1.934l0,-16.834c0,-0.742 0.164,-1.297 0.487,-1.664c0.327,-0.368 0.772,-0.552 1.335,-0.552c0.555,0 1.005,0.189 1.356,0.565c0.349,0.381 0.523,0.921 0.523,1.631l0,0.473Zm-7.672,10.876c-0.523,0.765 -1.301,1.35 -2.326,1.743c-1.027,0.396 -2.277,0.595 -3.743,0.595c-1.404,-0 -2.609,-0.217 -3.609,-0.647c-1.005,-0.427 -1.746,-0.963 -2.222,-1.606c-0.475,-0.643 -0.715,-1.289 -0.715,-1.937c-0,-0.427 0.152,-0.796 0.458,-1.101c0.306,-0.305 0.692,-0.459 1.161,-0.459c0.409,0 0.723,0.099 0.945,0.301c0.22,0.2 0.427,0.483 0.629,0.846c0.402,0.694 0.882,1.213 1.442,1.559c0.559,0.344 1.322,0.514 2.291,0.514c0.783,0 1.427,-0.176 1.928,-0.522c0.505,-0.347 0.754,-0.746 0.754,-1.194c0,-0.685 -0.262,-1.189 -0.782,-1.502c-0.522,-0.314 -1.38,-0.614 -2.577,-0.901c-1.346,-0.335 -2.443,-0.685 -3.289,-1.051c-0.848,-0.37 -1.525,-0.853 -2.029,-1.453c-0.509,-0.602 -0.76,-1.345 -0.76,-2.22c0,-0.781 0.233,-1.522 0.701,-2.22c0.469,-0.697 1.16,-1.253 2.069,-1.667c0.911,-0.417 2.012,-0.623 3.303,-0.623c1.011,-0 1.919,0.104 2.728,0.313c0.807,0.211 1.48,0.496 2.02,0.847c0.537,0.353 0.95,0.744 1.231,1.173c0.282,0.431 0.423,0.851 0.423,1.263c-0,0.448 -0.151,0.815 -0.451,1.103c-0.299,0.284 -0.726,0.428 -1.277,0.428c-0.402,-0 -0.741,-0.114 -1.019,-0.342c-0.283,-0.23 -0.604,-0.572 -0.967,-1.029c-0.297,-0.379 -0.646,-0.685 -1.046,-0.915c-0.403,-0.227 -0.948,-0.342 -1.638,-0.342c-0.707,0 -1.297,0.15 -1.766,0.448c-0.47,0.301 -0.703,0.677 -0.703,1.123c0,0.411 0.174,0.747 0.518,1.009c0.343,0.265 0.807,0.479 1.392,0.653c0.584,0.17 1.388,0.381 2.412,0.628c1.209,0.296 2.197,0.648 2.964,1.059c0.767,0.41 1.348,0.895 1.743,1.451c0.397,0.556 0.593,1.193 0.593,1.908c0,1.076 -0.259,1.997 -0.786,2.767Zm-23.294,1.927l-4.798,-12.085c-0.296,-0.698 -0.444,-1.205 -0.444,-1.517c-0,-0.334 0.085,-0.643 0.259,-0.928c0.17,-0.285 0.404,-0.514 0.706,-0.685c0.3,-0.172 0.611,-0.26 0.936,-0.26c0.561,0 0.988,0.183 1.269,0.537c0.287,0.36 0.54,0.872 0.76,1.539l3.298,9.615l3.128,-8.944c0.246,-0.724 0.471,-1.291 0.673,-1.7c0.196,-0.411 0.409,-0.688 0.633,-0.831c0.222,-0.143 0.541,-0.216 0.951,-0.216c0.295,0 0.578,0.081 0.849,0.237c0.271,0.155 0.48,0.369 0.629,0.636c0.147,0.269 0.222,0.546 0.222,0.842c-0.04,0.182 -0.101,0.442 -0.187,0.772c-0.087,0.334 -0.189,0.673 -0.314,1.014l-5.085,13.32c-0.437,1.171 -0.865,2.089 -1.284,2.758c-0.421,0.668 -0.976,1.177 -1.666,1.538c-0.69,0.356 -1.619,0.536 -2.792,0.536c-1.141,-0 -2,-0.126 -2.57,-0.373c-0.57,-0.248 -0.857,-0.703 -0.857,-1.359c0,-0.451 0.136,-0.794 0.407,-1.036c0.271,-0.246 0.676,-0.366 1.208,-0.366c0.208,-0 0.414,0.026 0.612,0.086c0.252,0.058 0.463,0.084 0.644,0.084c0.446,-0 0.802,-0.066 1.056,-0.197c0.255,-0.134 0.487,-0.366 0.694,-0.694c0.202,-0.329 0.439,-0.812 0.705,-1.45l0.358,-0.873Zm-16.886,-2.05c-0,0.821 -0.185,1.433 -0.558,1.847c-0.371,0.407 -0.86,0.615 -1.468,0.615c-0.59,-0 -1.069,-0.208 -1.435,-0.615c-0.365,-0.414 -0.55,-1.026 -0.55,-1.847l-0,-6.221c-0,-0.984 -0.033,-1.746 -0.1,-2.29c-0.066,-0.544 -0.247,-0.988 -0.544,-1.337c-0.296,-0.347 -0.764,-0.522 -1.403,-0.522c-1.277,0 -2.122,0.439 -2.528,1.314c-0.404,0.88 -0.606,2.136 -0.606,3.778l0,5.277c0,0.812 -0.184,1.424 -0.55,1.837c-0.365,0.416 -0.847,0.624 -1.449,0.624c-0.587,0 -1.072,-0.209 -1.446,-0.624c-0.378,-0.414 -0.566,-1.029 -0.566,-1.837l0,-11.175c0,-0.732 0.17,-1.292 0.508,-1.673c0.336,-0.382 0.78,-0.57 1.333,-0.57c0.532,-0 0.979,0.177 1.334,0.533c0.357,0.36 0.536,0.854 0.536,1.482l-0,0.375c0.679,-0.809 1.401,-1.408 2.174,-1.792c0.77,-0.38 1.629,-0.572 2.572,-0.572c0.981,-0 1.825,0.196 2.532,0.587c0.704,0.39 1.285,0.985 1.742,1.778c0.659,-0.802 1.363,-1.398 2.113,-1.783c0.754,-0.387 1.587,-0.582 2.501,-0.582c1.067,0 1.988,0.214 2.759,0.632c0.77,0.42 1.348,1.022 1.73,1.805c0.332,0.704 0.497,1.816 0.497,3.333l0,7.624c0,0.822 -0.183,1.434 -0.555,1.847c-0.373,0.408 -0.863,0.615 -1.471,0.615c-0.589,0 -1.074,-0.209 -1.449,-0.624c-0.375,-0.414 -0.566,-1.026 -0.566,-1.837l-0,-6.568c-0,-0.84 -0.033,-1.51 -0.104,-2.016c-0.074,-0.507 -0.266,-0.929 -0.58,-1.273c-0.313,-0.343 -0.79,-0.515 -1.43,-0.515c-0.512,0 -1.002,0.152 -1.465,0.457c-0.461,0.305 -0.823,0.718 -1.077,1.231c-0.29,0.66 -0.431,1.821 -0.431,3.491l-0,5.191Z" style="fill:#fff;fill-rule:nonzero;"/><path id="path25142" d="M99.417,28.259c-0.825,0 -1.459,0.223 -1.911,0.659c-0.447,0.431 -0.674,1.039 -0.674,1.833c-0,0.358 0.02,0.722 0.078,1.097l-1.481,-0l0,1.442l1.434,-0l0,6.581l2.053,-0l0,-6.581l1.489,-0l0.532,-1.442l-2.037,-0l0,-1.144c0,-0.292 0.079,-0.517 0.235,-0.674c0.157,-0.156 0.371,-0.235 0.643,-0.235c0.125,-0 0.24,0.017 0.345,0.047c0.114,0.033 0.287,0.105 0.517,0.219l0.673,-1.3c-0.323,-0.178 -0.638,-0.297 -0.94,-0.376c-0.294,-0.078 -0.611,-0.126 -0.956,-0.126Zm22.393,0c-0.826,0 -1.46,0.223 -1.912,0.659c-0.446,0.431 -0.674,1.039 -0.674,1.833c0,0.358 0.02,0.722 0.079,1.097l-1.481,-0l-0,1.442l1.433,-0l0,6.581l2.053,-0l0,-6.581l1.489,-0l0.533,-1.442l-2.037,-0l-0,-1.144c-0,-0.292 0.078,-0.517 0.235,-0.674c0.156,-0.156 0.371,-0.235 0.642,-0.235c0.126,-0 0.24,0.017 0.345,0.047c0.114,0.033 0.287,0.105 0.517,0.219l0.674,-1.3c-0.324,-0.178 -0.639,-0.297 -0.94,-0.376c-0.294,-0.078 -0.612,-0.126 -0.956,-0.126Zm-55.214,0.502c0.084,0.747 0.109,1.595 0.109,2.413l0,5.986c0,0.643 -0.033,1.209 0.189,1.802c0.124,0.335 0.355,0.601 0.689,0.799c0.334,0.199 0.726,0.298 1.175,0.298c0.46,-0 0.878,-0.074 1.254,-0.22l-0.361,-1.253c-0.052,0.021 -0.094,0.031 -0.125,0.031l-0.11,0c-0.2,0 -0.416,-0.126 -0.476,-0.392c-0.117,-0.514 -0.088,-1.074 -0.088,-1.614l0,-6.252c0,-0.621 -0.003,-1.377 -0.11,-2.084l-2.146,0.486Zm89.073,-0.486l0,2.758c0,0.24 0.005,0.481 0.016,0.721c0.01,0.23 0.026,0.386 0.046,0.47c-0.376,-0.303 -0.851,-0.455 -1.425,-0.455c-0.512,0 -0.975,0.109 -1.395,0.314c-0.416,0.202 -0.778,0.486 -1.081,0.862c-0.303,0.376 -0.537,0.826 -0.705,1.347c-0.166,0.513 -0.251,1.082 -0.251,1.708c0,0.627 0.078,1.191 0.235,1.693c0.157,0.501 0.371,0.934 0.658,1.285c0.287,0.349 0.641,0.62 1.05,0.814c0.405,0.193 0.867,0.283 1.379,0.283c0.721,-0 1.337,-0.225 1.849,-0.674c0.032,0.209 0.073,0.365 0.125,0.47l1.881,-0c-0.324,-0.853 -0.298,-1.935 -0.298,-2.931l0,-8.336l-2.084,-0.329Zm-23.251,0.063c-0.366,-0 -0.679,0.125 -0.941,0.376c-0.25,0.251 -0.376,0.559 -0.376,0.924c0,0.366 0.126,0.674 0.376,0.925c0.251,0.251 0.554,0.376 0.909,0.376c0.366,0 0.674,-0.125 0.925,-0.376c0.251,-0.251 0.376,-0.559 0.376,-0.925c-0,-0.365 -0.125,-0.673 -0.376,-0.924c-0.24,-0.251 -0.538,-0.376 -0.893,-0.376Zm-50.603,3.275c-0.334,-0 -0.683,0.06 -1.05,0.172c-0.354,0.108 -0.671,0.242 -0.94,0.423c-0.473,0.32 -0.859,0.795 -1.175,1.411c-0.311,0.607 -0.47,1.373 -0.47,2.303c-0,1.306 0.297,2.329 0.909,3.056c0.61,0.725 1.478,1.081 2.585,1.081c0.387,-0 0.737,-0.043 1.05,-0.126c0.324,-0.085 0.628,-0.206 0.909,-0.375c0.244,-0.148 0.524,-0.35 0.736,-0.596l-0.955,-1.269l-0.126,0.109c-0.501,0.439 -0.982,0.659 -1.441,0.659c-0.387,-0 -0.702,-0.15 -0.941,-0.455c-0.138,-0.176 -0.246,-0.422 -0.313,-0.736c-0.069,-0.323 -0.094,-0.752 -0.094,-1.285c-0,-0.951 0.112,-1.634 0.329,-2.053c0.222,-0.427 0.564,-0.642 1.034,-0.642c0.199,-0 0.405,0.061 0.627,0.172c0.217,0.108 0.434,0.256 0.643,0.454l1.018,-1.379c-0.178,-0.146 -0.32,-0.253 -0.423,-0.329c-0.096,-0.07 -0.212,-0.155 -0.36,-0.235c-0.218,-0.118 -0.465,-0.203 -0.737,-0.266c-0.271,-0.063 -0.543,-0.094 -0.815,-0.094Zm80.563,0.016c-0.47,-0 -0.899,0.061 -1.285,0.188c-0.376,0.123 -0.7,0.302 -0.971,0.532c-0.272,0.23 -0.481,0.507 -0.627,0.831c-0.146,0.323 -0.219,0.679 -0.219,1.065c-0,0.261 0.031,0.524 0.109,0.784c0.079,0.262 0.199,0.48 0.345,0.658c0.146,0.178 0.36,0.345 0.642,0.501c0.283,0.157 0.559,0.264 0.831,0.314l0.94,0.172c0.429,0.079 0.739,0.207 0.94,0.36c0.196,0.15 0.298,0.356 0.298,0.628c-0,0.261 -0.104,0.48 -0.313,0.657c-0.198,0.168 -0.45,0.251 -0.753,0.251c-0.23,0 -0.471,-0.02 -0.72,-0.078c-0.242,-0.057 -0.483,-0.13 -0.721,-0.219c-0.232,-0.088 -0.458,-0.187 -0.674,-0.298c-0.212,-0.109 -0.392,-0.219 -0.549,-0.313l-0.752,1.535c1.181,0.616 2.262,0.924 3.244,0.924c0.512,0 0.976,-0.069 1.394,-0.203c0.428,-0.138 0.79,-0.323 1.082,-0.564c0.303,-0.25 0.54,-0.542 0.705,-0.878c0.169,-0.343 0.251,-0.726 0.251,-1.144c-0,-0.543 -0.139,-1.004 -0.439,-1.363c-0.254,-0.302 -0.576,-0.55 -0.972,-0.705c-0.169,-0.067 -0.376,-0.139 -0.627,-0.204l-0.971,-0.251c-0.365,-0.094 -0.631,-0.192 -0.783,-0.313c-0.151,-0.12 -0.22,-0.292 -0.22,-0.501c0,-0.241 0.096,-0.425 0.282,-0.565c0.191,-0.142 0.434,-0.219 0.737,-0.219c0.303,0 0.604,0.053 0.909,0.141c0.311,0.09 0.668,0.23 1.065,0.439l0.69,-1.411c-0.366,-0.177 -0.775,-0.34 -1.223,-0.501c-0.451,-0.163 -0.997,-0.25 -1.645,-0.25Zm-17.605,0.015l-1.864,0.533c0.198,0.582 0.282,1.227 0.282,1.88l-0,5.814l2.099,-0l0,-5.673c0.241,-0.219 0.493,-0.387 0.752,-0.517c0.264,-0.131 0.497,-0.204 0.705,-0.204c0.272,0 0.449,0.088 0.549,0.251c0.099,0.161 0.157,0.465 0.157,0.925l-0,5.218l2.068,-0l0,-5.861c0,-0.48 -0.053,-0.861 -0.156,-1.144c-0.127,-0.344 -0.369,-0.617 -0.722,-0.83c-0.357,-0.216 -0.757,-0.329 -1.206,-0.329c-0.24,-0 -0.49,0.035 -0.752,0.094c-0.25,0.056 -0.48,0.137 -0.689,0.251c-0.177,0.095 -0.342,0.185 -0.486,0.282c-0.138,0.091 -0.282,0.198 -0.439,0.313c0,-0.324 -0.099,-0.658 -0.298,-1.003Zm-33.183,0.016l-1.881,0.501c0.266,0.745 0.298,1.541 0.298,2.351l0,5.359l2.1,-0l-0,-5.673c0.386,-0.449 0.815,-0.673 1.285,-0.673c0.209,-0 0.412,0.052 0.611,0.156l0.58,-1.849c-0.167,-0.073 -0.303,-0.119 -0.408,-0.141c-0.094,-0.019 -0.219,-0.031 -0.376,-0.031c-0.397,-0 -0.752,0.115 -1.065,0.345c-0.313,0.23 -0.585,0.496 -0.815,0.799c-0.031,-0.428 -0.141,-0.81 -0.329,-1.144Zm14.497,-0l-1.881,0.501c0.265,0.745 0.298,1.541 0.298,2.351l0,5.359l2.1,-0l-0,-5.673c0.386,-0.449 0.815,-0.673 1.285,-0.673c0.209,-0 0.412,0.052 0.611,0.156l0.58,-1.849c-0.168,-0.073 -0.304,-0.119 -0.408,-0.141c-0.094,-0.019 -0.219,-0.031 -0.376,-0.031c-0.397,-0 -0.752,0.115 -1.065,0.345c-0.314,0.23 -0.586,0.496 -0.815,0.799c-0.032,-0.428 -0.141,-0.81 -0.329,-1.144Zm-76.992,0.125c-0.345,0.072 -0.715,0.195 -1.112,0.361c-0.282,0.116 -0.518,0.219 -0.706,0.313c-0.188,0.094 -0.386,0.209 -0.595,0.345l0.893,1.504c0.439,-0.292 0.852,-0.517 1.238,-0.674c0.387,-0.156 0.747,-0.235 1.082,-0.235c0.386,0 0.631,0.093 0.751,0.266c0.12,0.172 0.189,0.476 0.189,0.925l-0,0.329c-0.084,-0.01 -0.162,-0.015 -0.235,-0.015l-0.236,-0c-1.285,-0 -2.25,0.225 -2.898,0.673c-0.637,0.44 -0.956,1.134 -0.956,2.085c-0,0.804 0.232,1.428 0.705,1.864c0.468,0.431 1.154,0.643 2.052,0.643c0.669,-0 1.209,-0.144 1.614,-0.439c0.167,-0.122 0.331,-0.263 0.486,-0.423c0.105,0.209 0.254,0.399 0.455,0.564c0.207,0.17 0.433,0.303 0.674,0.407l1.112,-1.285c-0.177,-0.136 -0.334,-0.248 -0.423,-0.376c-0.284,-0.41 -0.339,-0.874 -0.329,-1.41l0.047,-2.695c0.009,-0.516 0.019,-0.964 -0.141,-1.442c-0.151,-0.451 -0.461,-0.792 -0.909,-1.034c-0.44,-0.238 -0.998,-0.361 -1.677,-0.361c-0.365,0 -0.726,0.036 -1.081,0.11Zm24.115,0c-0.345,0.072 -0.715,0.195 -1.113,0.361c-0.281,0.116 -0.517,0.219 -0.705,0.313c-0.188,0.094 -0.387,0.209 -0.596,0.345l0.894,1.504c0.438,-0.292 0.851,-0.517 1.238,-0.674c0.386,-0.156 0.747,-0.235 1.081,-0.235c0.387,0 0.631,0.093 0.752,0.266c0.119,0.172 0.188,0.476 0.188,0.925l0,0.329c-0.084,-0.01 -0.162,-0.015 -0.235,-0.015l-0.235,-0c-1.285,-0 -2.251,0.225 -2.899,0.673c-0.636,0.44 -0.956,1.134 -0.956,2.085c0,0.804 0.233,1.428 0.706,1.864c0.467,0.431 1.154,0.643 2.052,0.643c0.669,-0 1.209,-0.144 1.614,-0.439c0.167,-0.122 0.331,-0.263 0.486,-0.423c0.105,0.209 0.254,0.399 0.454,0.564c0.207,0.17 0.434,0.303 0.674,0.407l1.113,-1.285c-0.178,-0.136 -0.335,-0.248 -0.423,-0.376c-0.284,-0.41 -0.339,-0.874 -0.329,-1.41l0.047,-2.695c0.009,-0.516 0.019,-0.964 -0.141,-1.442c-0.151,-0.451 -0.462,-0.792 -0.91,-1.034c-0.439,-0.238 -0.997,-0.361 -1.676,-0.361c-0.365,0 -0.726,0.036 -1.081,0.11Zm15.055,-0.11c-0.533,0 -1.003,0.089 -1.41,0.267c-0.408,0.177 -0.781,0.447 -1.113,0.815c-0.357,0.395 -0.611,0.846 -0.768,1.347c-0.157,0.502 -0.235,1.113 -0.235,1.834c0,0.626 0.089,1.196 0.266,1.707c0.178,0.512 0.423,0.956 0.753,1.317c0.329,0.36 0.736,0.632 1.206,0.83c0.47,0.199 0.993,0.298 1.567,0.298c1.108,0 2.115,-0.371 3.024,-1.112l-0.814,-1.254c-0.648,0.533 -1.327,0.799 -2.038,0.799c-0.543,0 -0.961,-0.167 -1.253,-0.501c-0.293,-0.335 -0.439,-0.815 -0.439,-1.442l-0,-0.063l4.638,0l0,-0.485c0,-0.847 -0.095,-1.544 -0.266,-2.1c-0.174,-0.562 -0.435,-1.033 -0.799,-1.41c-0.262,-0.271 -0.596,-0.481 -1.003,-0.627c-0.408,-0.146 -0.846,-0.22 -1.316,-0.22Zm49.938,0c-0.532,0 -1.003,0.089 -1.41,0.267c-0.408,0.177 -0.78,0.447 -1.113,0.815c-0.357,0.395 -0.61,0.846 -0.767,1.347c-0.157,0.502 -0.235,1.113 -0.235,1.834c-0,0.626 0.088,1.196 0.266,1.707c0.178,0.512 0.423,0.956 0.752,1.317c0.329,0.36 0.737,0.632 1.207,0.83c0.47,0.199 0.992,0.298 1.567,0.298c1.107,0 2.115,-0.371 3.024,-1.112l-0.815,-1.254c-0.647,0.533 -1.327,0.799 -2.037,0.799c-0.543,0 -0.961,-0.167 -1.254,-0.501c-0.292,-0.335 -0.438,-0.815 -0.438,-1.442l-0,-0.063l4.638,0l0,-0.485c0,-0.847 -0.095,-1.544 -0.266,-2.1c-0.174,-0.562 -0.435,-1.033 -0.8,-1.41c-0.262,-0.271 -0.595,-0.481 -1.002,-0.627c-0.408,-0.146 -0.846,-0.22 -1.317,-0.22Zm-79.984,0.345c0.102,0.639 0.126,1.333 0.126,2.022l-0,9.276l2.021,-0.533l-0,-2.852c-0,-0.115 -0.011,-0.219 -0.031,-0.313c0.229,0.136 0.485,0.241 0.768,0.313c0.292,0.075 0.595,0.11 0.908,0.11c0.439,0 0.835,-0.08 1.191,-0.235c0.365,-0.159 0.683,-0.383 0.956,-0.674c0.207,-0.221 0.377,-0.446 0.517,-0.673c0.142,-0.233 0.258,-0.482 0.345,-0.753c0.091,-0.283 0.151,-0.59 0.188,-0.924c0.036,-0.335 0.062,-0.716 0.062,-1.144c0,-0.46 -0.036,-0.872 -0.109,-1.238c-0.073,-0.366 -0.178,-0.689 -0.314,-0.972c-0.136,-0.282 -0.295,-0.519 -0.47,-0.72c-0.18,-0.207 -0.376,-0.387 -0.595,-0.533c-0.22,-0.147 -0.472,-0.255 -0.752,-0.345c-0.274,-0.088 -0.549,-0.141 -0.831,-0.141c-0.407,0 -0.792,0.078 -1.159,0.22c-0.364,0.14 -0.637,0.313 -0.815,0.532c-0.027,-0.237 -0.062,-0.501 -0.141,-0.752l-1.865,0.329Zm46.549,-0.329c-0.543,0 -1.04,0.098 -1.489,0.298c-0.439,0.197 -0.812,0.488 -1.128,0.862c-0.31,0.367 -0.562,0.808 -0.736,1.332c-0.171,0.511 -0.251,1.081 -0.251,1.708c0,0.627 0.079,1.197 0.251,1.708c0.173,0.513 0.42,0.952 0.736,1.316c0.311,0.357 0.689,0.634 1.128,0.831c0.449,0.2 0.946,0.297 1.489,0.297c0.627,0 1.149,-0.099 1.567,-0.297c0.418,-0.199 0.78,-0.47 1.081,-0.816c0.346,-0.396 0.591,-0.842 0.752,-1.331c0.163,-0.493 0.251,-1.082 0.251,-1.771c0,-0.658 -0.073,-1.217 -0.219,-1.677c-0.146,-0.459 -0.384,-0.875 -0.706,-1.253c-0.681,-0.802 -1.587,-1.207 -2.726,-1.207Zm25.168,0.157l0.015,1.442l1.386,-0l-0,6.581l2.099,-0l0,-8.023l-3.5,-0Zm-41.64,1.363c0.407,0 0.717,0.156 0.925,0.47c0.095,0.146 0.151,0.309 0.188,0.486c0.037,0.179 0.062,0.418 0.062,0.721l0,0.094l-2.428,0l-0,-0.032c-0,-0.564 0.112,-0.99 0.329,-1.285c0.221,-0.301 0.527,-0.454 0.924,-0.454Zm49.939,0c0.407,0 0.717,0.156 0.924,0.47c0.096,0.146 0.152,0.309 0.188,0.486c0.037,0.179 0.063,0.418 0.063,0.721l-0,0.094l-2.429,0l-0,-0.032c-0,-0.564 0.112,-0.99 0.329,-1.285c0.222,-0.301 0.528,-0.454 0.925,-0.454Zm-33.436,0.031c0.387,0 0.69,0.141 0.909,0.423c0.283,0.366 0.423,1.082 0.423,2.147c0,0.951 -0.108,1.638 -0.313,2.069c-0.203,0.426 -0.527,0.642 -0.987,0.642c-0.209,0 -0.422,-0.046 -0.627,-0.156c-0.202,-0.109 -0.345,-0.282 -0.439,-0.502c-0.178,-0.417 -0.266,-1.092 -0.266,-2.021c-0,-0.397 0.01,-0.743 0.047,-1.034c0.037,-0.294 0.101,-0.543 0.172,-0.753c0.085,-0.25 0.218,-0.452 0.408,-0.595c0.196,-0.149 0.423,-0.22 0.673,-0.22Zm-43.023,0.157c0.512,0 0.844,0.225 1.003,0.674c0.071,0.199 0.125,0.449 0.157,0.752c0.03,0.293 0.047,0.632 0.047,1.019c-0,0.919 -0.11,1.572 -0.329,1.958c-0.22,0.387 -0.591,0.58 -1.113,0.58c-0.209,0 -0.42,-0.043 -0.627,-0.141c-0.211,-0.1 -0.386,-0.214 -0.533,-0.329l0,-3.902c0.387,-0.407 0.852,-0.611 1.395,-0.611Zm92.781,0.047c0.365,0 0.746,0.172 1.143,0.517l0,3.824c-0.104,0.125 -0.255,0.247 -0.454,0.36c-0.187,0.106 -0.381,0.157 -0.58,0.157c-0.271,-0 -0.503,-0.032 -0.689,-0.11c-0.19,-0.079 -0.34,-0.214 -0.455,-0.392c-0.115,-0.177 -0.203,-0.411 -0.25,-0.705c-0.047,-0.291 -0.063,-0.653 -0.063,-1.081c-0,-0.898 0.1,-1.554 0.313,-1.959c0.215,-0.409 0.564,-0.611 1.035,-0.611Zm-103.848,2.915l0.094,-0l-0.031,1.724c-0.157,0.177 -0.329,0.313 -0.517,0.407c-0.188,0.094 -0.382,0.141 -0.58,0.141c-0.272,-0 -0.501,-0.089 -0.674,-0.282c-0.172,-0.194 -0.251,-0.455 -0.251,-0.768c0,-0.48 0.14,-0.807 0.423,-0.972c0.292,-0.169 0.805,-0.25 1.536,-0.25Zm24.115,-0l0.094,-0l-0.031,1.724c-0.157,0.177 -0.33,0.313 -0.518,0.407c-0.188,0.094 -0.381,0.141 -0.579,0.141c-0.272,-0 -0.502,-0.089 -0.674,-0.282c-0.173,-0.194 -0.251,-0.455 -0.251,-0.768c-0,-0.48 0.14,-0.807 0.423,-0.972c0.291,-0.169 0.805,-0.25 1.536,-0.25Z" style="fill:#fff;fill-rule:nonzero;"/><path id="rect25336" d="M20.72,6.672c-0,3.685 2.987,6.672 6.672,6.672c3.685,0 6.672,-2.987 6.672,-6.672c-0,-3.685 -2.987,-6.672 -6.673,-6.672c-3.685,0 -6.671,2.988 -6.671,6.672Zm-10.365,0.666c0.001,2.695 2.185,4.88 4.88,4.88c2.696,0 4.881,-2.185 4.881,-4.88c-0,-2.695 -2.185,-4.89 -4.898,-4.88c-2.699,0.009 -4.863,2.198 -4.863,4.88Zm-8.864,0.319c0,2.205 1.788,3.993 3.993,3.993c2.205,-0 3.992,-1.788 3.992,-3.993c0.001,-2.205 -1.787,-3.996 -3.998,-3.993c-2.206,0.003 -3.987,1.792 -3.987,3.993Zm3.971,4.774c-3.026,-0 -5.462,2.436 -5.462,5.462l-0,9.833l8.541,0l0,4.122l9.742,-0l-0,8.303l18.241,0l0,-16.421c0,-5.053 -4.068,-9.12 -9.121,-9.12c-2.373,-0 -4.528,0.897 -6.147,2.372c-1.066,-2.264 -3.364,-3.825 -6.04,-3.825c-1.957,0 -3.712,0.834 -4.93,2.167c-0.917,-1.724 -2.729,-2.893 -4.824,-2.893Z" style="fill:#fff;fill-rule:nonzero;"/></g></g></svg>